{
  "asset": {
    "version": "2.0",
    "generator": "THREE.GLTFExporter"
  },
  "scenes": [
    {
      "name": "Anatomy Study Model",
      "nodes": [
        0,
        1,
        2,
        3,
        4,
        5,
        6,
        7,
        8,
        9
      ]
    }
  ],
  "scene": 0,
  "nodes": [
    {
      "matrix": [
        0.82,
        0,
        0,
        0,
        0,
        1.28,
        0,
        0,
        0,
        0,
        0.42,
        0,
        0,
        0.2,
        0,
        1
      ],
      "name": "torso_reference",
      "mesh": 0
    },
    {
      "matrix": [
        1,
        0,
        0,
        0,
        0,
        1.06,
        0,
        0,
        0,
        0,
        1,
        0,
        0,
        1.85,
        0,
        1
      ],
      "name": "head_reference",
      "mesh": 1
    },
    {
      "matrix": [
        1,
        0,
        0,
        0,
        0,
        1,
        0,
        0,
        0,
        0,
        1,
        0,
        0,
        0.28,
        -0.08,
        1
      ],
      "name": "spine",
      "mesh": 2
    },
    {
      "matrix": [
        0.72,
        0,
        0,
        0,
        0,
        1.12,
        0,
        0,
        0,
        0,
        0.42,
        0,
        -0.26,
        0.74,
        0.1,
        1
      ],
      "name": "left_lung",
      "mesh": 3
    },
    {
      "matrix": [
        0.72,
        0,
        0,
        0,
        0,
        1.12,
        0,
        0,
        0,
        0,
        0.42,
        0,
        0.26,
        0.74,
        0.1,
        1
      ],
      "name": "right_lung",
      "mesh": 4
    },
    {
      "matrix": [
        0.95,
        0,
        0,
        0,
        0,
        1.12,
        0,
        0,
        0,
        0,
        0.8,
        0,
        0.05,
        0.56,
        0.22,
        1
      ],
      "name": "heart",
      "mesh": 5
    },
    {
      "matrix": [
        1.1,
        0,
        0,
        0,
        0,
        0.78,
        0,
        0,
        0,
        0,
        0.62,
        0,
        -0.16,
        -0.17,
        0.13,
        1
      ],
      "name": "stomach",
      "mesh": 6
    },
    {
      "matrix": [
        1.35,
        0,
        0,
        0,
        0,
        0.62,
        0,
        0,
        0,
        0,
        0.55,
        0,
        0.22,
        -0.08,
        0.12,
        1
      ],
      "name": "liver",
      "mesh": 7
    },
    {
      "matrix": [
        1,
        0,
        0,
        0,
        0,
        1,
        0,
        0,
        0,
        0,
        1,
        0,
        4,
        6,
        5,
        1
      ],
      "name": "key_light",
      "extensions": {
        "KHR_lights_punctual": {
          "light": 0
        }
      }
    },
    {
      "matrix": [
        1,
        0,
        0,
        0,
        0,
        1,
        0,
        0,
        0,
        0,
        1,
        0,
        -4,
        3,
        -3,
        1
      ],
      "name": "fill_light",
      "extensions": {
        "KHR_lights_punctual": {
          "light": 1
        }
      }
    }
  ],
  "bufferViews": [
    {
      "buffer": 0,
      "byteOffset": 0,
      "byteLength": 19404,
      "target": 34962,
      "byteStride": 12
    },
    {
      "buffer": 0,
      "byteOffset": 19404,
      "byteLength": 19404,
      "target": 34962,
      "byteStride": 12
    },
    {
      "buffer": 0,
      "byteOffset": 38808,
      "byteLength": 12936,
      "target": 34962,
      "byteStride": 8
    },
    {
      "buffer": 0,
      "byteOffset": 51744,
      "byteLength": 17856,
      "target": 34963
    },
    {
      "buffer": 0,
      "byteOffset": 69600,
      "byteLength": 14700,
      "target": 34962,
      "byteStride": 12
    },
    {
      "buffer": 0,
      "byteOffset": 84300,
      "byteLength": 14700,
      "target": 34962,
      "byteStride": 12
    },
    {
      "buffer": 0,
      "byteOffset": 99000,
      "byteLength": 9800,
      "target": 34962,
      "byteStride": 8
    },
    {
      "buffer": 0,
      "byteOffset": 108800,
      "byteLength": 13248,
      "target": 34963
    },
    {
      "buffer": 0,
      "byteOffset": 122048,
      "byteLength": 1776,
      "target": 34962,
      "byteStride": 12
    },
    {
      "buffer": 0,
      "byteOffset": 123824,
      "byteLength": 1776,
      "target": 34962,
      "byteStride": 12
    },
    {
      "buffer": 0,
      "byteOffset": 125600,
      "byteLength": 1184,
      "target": 34962,
      "byteStride": 8
    },
    {
      "buffer": 0,
      "byteOffset": 126784,
      "byteLength": 576,
      "target": 34963
    },
    {
      "buffer": 0,
      "byteOffset": 127360,
      "byteLength": 12300,
      "target": 34962,
      "byteStride": 12
    },
    {
      "buffer": 0,
      "byteOffset": 139660,
      "byteLength": 12300,
      "target": 34962,
      "byteStride": 12
    },
    {
      "buffer": 0,
      "byteOffset": 151960,
      "byteLength": 8200,
      "target": 34962,
      "byteStride": 8
    },
    {
      "buffer": 0,
      "byteOffset": 160160,
      "byteLength": 11040,
      "target": 34963
    },
    {
      "buffer": 0,
      "byteOffset": 171200,
      "byteLength": 12300,
      "target": 34962,
      "byteStride": 12
    },
    {
      "buffer": 0,
      "byteOffset": 183500,
      "byteLength": 12300,
      "target": 34962,
      "byteStride": 12
    },
    {
      "buffer": 0,
      "byteOffset": 195800,
      "byteLength": 8200,
      "target": 34962,
      "byteStride": 8
    },
    {
      "buffer": 0,
      "byteOffset": 204000,
      "byteLength": 11040,
      "target": 34963
    },
    {
      "buffer": 0,
      "byteOffset": 215040,
      "byteLength": 12300,
      "target": 34962,
      "byteStride": 12
    },
    {
      "buffer": 0,
      "byteOffset": 227340,
      "byteLength": 12300,
      "target": 34962,
      "byteStride": 12
    },
    {
      "buffer": 0,
      "byteOffset": 239640,
      "byteLength": 8200,
      "target": 34962,
      "byteStride": 8
    },
    {
      "buffer": 0,
      "byteOffset": 247840,
      "byteLength": 11040,
      "target": 34963
    },
    {
      "buffer": 0,
      "byteOffset": 258880,
      "byteLength": 12300,
      "target": 34962,
      "byteStride": 12
    },
    {
      "buffer": 0,
      "byteOffset": 271180,
      "byteLength": 12300,
      "target": 34962,
      "byteStride": 12
    },
    {
      "buffer": 0,
      "byteOffset": 283480,
      "byteLength": 8200,
      "target": 34962,
      "byteStride": 8
    },
    {
      "buffer": 0,
      "byteOffset": 291680,
      "byteLength": 11040,
      "target": 34963
    },
    {
      "buffer": 0,
      "byteOffset": 302720,
      "byteLength": 12300,
      "target": 34962,
      "byteStride": 12
    },
    {
      "buffer": 0,
      "byteOffset": 315020,
      "byteLength": 12300,
      "target": 34962,
      "byteStride": 12
    },
    {
      "buffer": 0,
      "byteOffset": 327320,
      "byteLength": 8200,
      "target": 34962,
      "byteStride": 8
    },
    {
      "buffer": 0,
      "byteOffset": 335520,
      "byteLength": 11040,
      "target": 34963
    }
  ],
  "buffers": [
    {
      "byteLength": 346560,
      "uri": "data:application/octet-stream;base64,"
    }
  ],
  "accessors": [
    {
      "bufferView": 0,
      "componentType": 5126,
      "count": 1617,
      "max": [
        1,
        1,
        1
      ],
      "min": [
        -1,
        -1,
        -1
      ],
      "type": "VEC3"
    },
    {
      "bufferView": 1,
      "componentType": 5126,
      "count": 1617,
      "max": [
        1,
        1,
        1
      ],
      "min": [
        -1,
        -1,
        -1
      ],
      "type": "VEC3"
    },
    {
      "bufferView": 2,
      "componentType": 5126,
      "count": 1617,
      "max": [
        1.0104166269302368,
        1
      ],
      "min": [
        -0.010416666977107525,
        0
      ],
      "type": "VEC2"
    },
    {
      "bufferView": 3,
      "componentType": 5123,
      "count": 8928,
      "max": [
        1616
      ],
      "min": [
        0
      ],
      "type": "SCALAR"
    },
    {
      "bufferView": 4,
      "componentType": 5126,
      "count": 1225,
      "max": [
        0.3400000035762787,
        0.3400000035762787,
        0.3400000035762787
      ],
      "min": [
        -0.3400000035762787,
        -0.3400000035762787,
        -0.3400000035762787
      ],
      "type": "VEC3"
    },
    {
      "bufferView": 5,
      "componentType": 5126,
      "count": 1225,
      "max": [
        1,
        1,
        1
      ],
      "min": [
        -1,
        -1,
        -1
      ],
      "type": "VEC3"
    },
    {
      "bufferView": 6,
      "componentType": 5126,
      "count": 1225,
      "max": [
        1.0104166269302368,
        1
      ],
      "min": [
        -0.010416666977107525,
        0
      ],
      "type": "VEC2"
    },
    {
      "bufferView": 7,
      "componentType": 5123,
      "count": 6624,
      "max": [
        1224
      ],
      "min": [
        0
      ],
      "type": "SCALAR"
    },
    {
      "bufferView": 8,
      "componentType": 5126,
      "count": 148,
      "max": [
        0.054999999701976776,
        0.875,
        0.054999999701976776
      ],
      "min": [
        -0.054999999701976776,
        -0.875,
        -0.054999999701976776
      ],
      "type": "VEC3"
    },
    {
      "bufferView": 9,
      "componentType": 5126,
      "count": 148,
      "max": [
        0.9999836683273315,
        1,
        0.9999836683273315
      ],
      "min": [
        -0.9999836683273315,
        -1,
        -0.9999836683273315
      ],
      "type": "VEC3"
    },
    {
      "bufferView": 10,
      "componentType": 5126,
      "count": 148,
      "max": [
        1,
        1
      ],
      "min": [
        0,
        0
      ],
      "type": "VEC2"
    },
    {
      "bufferView": 11,
      "componentType": 5123,
      "count": 288,
      "max": [
        147
      ],
      "min": [
        0
      ],
      "type": "SCALAR"
    },
    {
      "bufferView": 12,
      "componentType": 5126,
      "count": 1025,
      "max": [
        0.2800000011920929,
        0.2800000011920929,
        0.2800000011920929
      ],
      "min": [
        -0.2800000011920929,
        -0.2800000011920929,
        -0.2800000011920929
      ],
      "type": "VEC3"
    },
    {
      "bufferView": 13,
      "componentType": 5126,
      "count": 1025,
      "max": [
        1,
        1,
        1
      ],
      "min": [
        -1,
        -1,
        -1
      ],
      "type": "VEC3"
    },
    {
      "bufferView": 14,
      "componentType": 5126,
      "count": 1025,
      "max": [
        1.0125000476837158,
        1
      ],
      "min": [
        -0.012500000186264515,
        0
      ],
      "type": "VEC2"
    },
    {
      "bufferView": 15,
      "componentType": 5123,
      "count": 5520,
      "max": [
        1024
      ],
      "min": [
        0
      ],
      "type": "SCALAR"
    },
    {
      "bufferView": 16,
      "componentType": 5126,
      "count": 1025,
      "max": [
        0.2800000011920929,
        0.2800000011920929,
        0.2800000011920929
      ],
      "min": [
        -0.2800000011920929,
        -0.2800000011920929,
        -0.2800000011920929
      ],
      "type": "VEC3"
    },
    {
      "bufferView": 17,
      "componentType": 5126,
      "count": 1025,
      "max": [
        1,
        1,
        1
      ],
      "min": [
        -1,
        -1,
        -1
      ],
      "type": "VEC3"
    },
    {
      "bufferView": 18,
      "componentType": 5126,
      "count": 1025,
      "max": [
        1.0125000476837158,
        1
      ],
      "min": [
        -0.012500000186264515,
        0
      ],
      "type": "VEC2"
    },
    {
      "bufferView": 19,
      "componentType": 5123,
      "count": 5520,
      "max": [
        1024
      ],
      "min": [
        0
      ],
      "type": "SCALAR"
    },
    {
      "bufferView": 20,
      "componentType": 5126,
      "count": 1025,
      "max": [
        0.18000000715255737,
        0.18000000715255737,
        0.18000000715255737
      ],
      "min": [
        -0.18000000715255737,
        -0.18000000715255737,
        -0.18000000715255737
      ],
      "type": "VEC3"
    },
    {
      "bufferView": 21,
      "componentType": 5126,
      "count": 1025,
      "max": [
        1,
        1,
        1
      ],
      "min": [
        -1,
        -1,
        -1
      ],
      "type": "VEC3"
    },
    {
      "bufferView": 22,
      "componentType": 5126,
      "count": 1025,
      "max": [
        1.0125000476837158,
        1
      ],
      "min": [
        -0.012500000186264515,
        0
      ],
      "type": "VEC2"
    },
    {
      "bufferView": 23,
      "componentType": 5123,
      "count": 5520,
      "max": [
        1024
      ],
      "min": [
        0
      ],
      "type": "SCALAR"
    },
    {
      "bufferView": 24,
      "componentType": 5126,
      "count": 1025,
      "max": [
        0.2199999988079071,
        0.2199999988079071,
        0.2199999988079071
      ],
      "min": [
        -0.2199999988079071,
        -0.2199999988079071,
        -0.2199999988079071
      ],
      "type": "VEC3"
    },
    {
      "bufferView": 25,
      "componentType": 5126,
      "count": 1025,
      "max": [
        1,
        1,
        1
      ],
      "min": [
        -1,
        -1,
        -1
      ],
      "type": "VEC3"
    },
    {
      "bufferView": 26,
      "componentType": 5126,
      "count": 1025,
      "max": [
        1.0125000476837158,
        1
      ],
      "min": [
        -0.012500000186264515,
        0
      ],
      "type": "VEC2"
    },
    {
      "bufferView": 27,
      "componentType": 5123,
      "count": 5520,
      "max": [
        1024
      ],
      "min": [
        0
      ],
      "type": "SCALAR"
    },
    {
      "bufferView": 28,
      "componentType": 5126,
      "count": 1025,
      "max": [
        0.23999999463558197,
        0.23999999463558197,
        0.23999999463558197
      ],
      "min": [
        -0.23999999463558197,
        -0.23999999463558197,
        -0.23999999463558197
      ],
      "type": "VEC3"
    },
    {
      "bufferView": 29,
      "componentType": 5126,
      "count": 1025,
      "max": [
        1,
        1,
        1
      ],
      "min": [
        -1,
        -1,
        -1
      ],
      "type": "VEC3"
    },
    {
      "bufferView": 30,
      "componentType": 5126,
      "count": 1025,
      "max": [
        1.0125000476837158,
        1
      ],
      "min": [
        -0.012500000186264515,
        0
      ],
      "type": "VEC2"
    },
    {
      "bufferView": 31,
      "componentType": 5123,
      "count": 5520,
      "max": [
        1024
      ],
      "min": [
        0
      ],
      "type": "SCALAR"
    }
  ],
  "materials": [
    {
      "pbrMetallicRoughness": {
        "baseColorFactor": [
          0.775822218312646,
          0.5332764040016892,
          0.3712376804636741,
          0.34
        ],
        "metallicFactor": 0.04,
        "roughnessFactor": 0.62
      },
      "alphaMode": "BLEND",
      "name": "translucent_body_reference"
    },
    {
      "pbrMetallicRoughness": {
        "baseColorFactor": [
          0.8879231178794775,
          0.85499260812105,
          0.7156935005005721,
          1
        ],
        "metallicFactor": 0.04,
        "roughnessFactor": 0.62
      },
      "name": "skeletal_structure"
    },
    {
      "pbrMetallicRoughness": {
        "baseColorFactor": [
          0.2704977910022518,
          0.4793201830913402,
          0.8069522576650873,
          1
        ],
        "metallicFactor": 0.04,
        "roughnessFactor": 0.62
      },
      "name": "lung_focus"
    },
    {
      "pbrMetallicRoughness": {
        "baseColorFactor": [
          0.6866853124288865,
          0.07227185067438519,
          0.07227185067438519,
          1
        ],
        "metallicFactor": 0.04,
        "roughnessFactor": 0.62
      },
      "name": "heart_focus"
    },
    {
      "pbrMetallicRoughness": {
        "baseColorFactor": [
          0.6866853124288865,
          0.36625259558833256,
          0.10461648408208657,
          1
        ],
        "metallicFactor": 0.04,
        "roughnessFactor": 0.62
      },
      "name": "organ_focus"
    }
  ],
  "meshes": [
    {
      "primitives": [
        {
          "mode": 4,
          "attributes": {
            "POSITION": 0,
            "NORMAL": 1,
            "TEXCOORD_0": 2
          },
          "indices": 3,
          "material": 0
        }
      ]
    },
    {
      "primitives": [
        {
          "mode": 4,
          "attributes": {
            "POSITION": 4,
            "NORMAL": 5,
            "TEXCOORD_0": 6
          },
          "indices": 7,
          "material": 0
        }
      ]
    },
    {
      "primitives": [
        {
          "mode": 4,
          "attributes": {
            "POSITION": 8,
            "NORMAL": 9,
            "TEXCOORD_0": 10
          },
          "indices": 11,
          "material": 1
        }
      ]
    },
    {
      "primitives": [
        {
          "mode": 4,
          "attributes": {
            "POSITION": 12,
            "NORMAL": 13,
            "TEXCOORD_0": 14
          },
          "indices": 15,
          "material": 2
        }
      ]
    },
    {
      "primitives": [
        {
          "mode": 4,
          "attributes": {
            "POSITION": 16,
            "NORMAL": 17,
            "TEXCOORD_0": 18
          },
          "indices": 19,
          "material": 2
        }
      ]
    },
    {
      "primitives": [
        {
          "mode": 4,
          "attributes": {
            "POSITION": 20,
            "NORMAL": 21,
            "TEXCOORD_0": 22
          },
          "indices": 23,
          "material": 3
        }
      ]
    },
    {
      "primitives": [
        {
          "mode": 4,
          "attributes": {
            "POSITION": 24,
            "NORMAL": 25,
            "TEXCOORD_0": 26
          },
          "indices": 27,
          "material": 4
        }
      ]
    },
    {
      "primitives": [
        {
          "mode": 4,
          "attributes": {
            "POSITION": 28,
            "NORMAL": 29,
            "TEXCOORD_0": 30
          },
          "indices": 31,
          "material": 4
        }
      ]
    }
  ],
  "extensions": {
    "KHR_lights_punctual": {
      "lights": [
        {
          "name": "key_light",
          "color": [
            1,
            1,
            1
          ],
          "intensity": 2.5,
          "type": "directional"
        },
        {
          "name": "fill_light",
          "color": [
            0.34191442489801843,
            0.5711248294565854,
            1
          ],
          "intensity": 1.3,
          "type": "directional"
        }
      ]
    }
  },
  "extensionsUsed": [
    "KHR_lights_punctual"
  ]
}